<?xml version="1.0" encoding="utf-8"?>
<!-- Generator: Adobe Illustrator 19.0.1, SVG Export Plug-In . SVG Version: 6.00 Build 0)  -->
<svg version="1.1" id="Layer_1" xmlns="http://www.w3.org/2000/svg" xmlns:xlink="http://www.w3.org/1999/xlink" x="0px" y="0px"
	 width="250px" height="106.4px" viewBox="0 0 250 106.4" enable-background="new 0 0 250 106.4" xml:space="preserve">
<rect fill="#F7F7F7" width="250" height="106.4"/>
<path id="XMLID_13_" fill="#B4B7B9" d="M68.9,51.5l0.4-3.7c-0.1-1.7-0.5-3.2-1.2-4.6l-1.9,2.7c0.3,0.9,0.4,1.9,0.3,2.9
	c-0.4,4.6-4.6,8.4-9.4,8.4c-1.1,0-2.2-0.2-3.2-0.6l11.6-12.1l4.9-5l-3.5,1.8c-2.3-2.9-6-4.6-10.3-4.5c-7.3,0.3-13.6,6.3-13.9,13.3
	c-0.4,7.1,5.3,12.6,12.7,12.3C61.8,62.2,67.4,57.5,68.9,51.5z M82.1,54.5c0.2-2,0-3.4-0.5-4.3c-0.5-0.9-1.4-1.3-2.7-1.3
	c-0.6,0-1.1,0.1-1.7,0.3c-0.6,0.2-1.2,0.5-1.7,0.8l-1,10.3c0.3,0.1,0.7,0.2,1.1,0.3c0.4,0.1,0.9,0.1,1.4,0.1c1.5,0,2.7-0.5,3.6-1.5
	C81.3,58,81.9,56.5,82.1,54.5z M96.4,65.2c-2.6,0-4.4-0.5-5.5-1.6c-1.1-1.1-1.5-2.8-1.2-5.2l1-9.5h-2.3c0.4,1.5,0.5,3.4,0.3,5.5
	c-0.3,3.3-1.4,5.9-3.3,7.9c-1.8,2-4,3-6.4,3c-1,0-1.9-0.1-2.6-0.3c-0.7-0.2-1.5-0.6-2.3-1.1l-0.8,8.5h-6.4l1.2-11.5
	c-3.4,4.5-8.8,7.5-14.6,7.5c-9.3,0-16.2-7.6-15.5-17.1c0.8-9.4,8.9-17.1,18.2-17.1c4.7,0,8.8,2,11.6,5.1l5.4-2.1l-3.2,5.3
	c0.3,0.6,0.6,1.3,0.8,1.9l5.2,0l-0.2,2.1c1-0.8,2-1.4,3-1.9c1-0.5,2.2-0.7,3.4-0.7c1.1,0,2,0.2,2.8,0.6l6.1,0l0.6-5.8H98l-0.6,5.8
	h6.1l-0.4,4.4H97l-0.7,7.2c-0.1,0.7-0.1,1.3-0.2,1.9c0,0.5,0,1,0.1,1.4c0.1,0.4,0.4,0.8,0.8,1c0.4,0.2,1,0.4,1.9,0.4
	c0.3,0,0.8-0.1,1.3-0.2c0.6-0.1,1-0.3,1.2-0.4h0.5l-0.4,4.5c-0.7,0.2-1.5,0.3-2.2,0.4C98.5,65.1,97.5,65.2,96.4,65.2z M49,48.7
	c0.4-4.6,4.6-8.4,9.4-8.4c2.4,0,4.5,0.9,6,2.5L50,53.4C49.2,52.1,48.8,50.5,49,48.7z M109.2,64.8h-6.4l2-20.4h6.4L109.2,64.8z
	 M111.7,41.5H105l0.5-5h6.7L111.7,41.5z M135,64.8l1-10.2c0.1-1,0.2-1.9,0.2-2.5c0-0.7,0-1.3-0.2-1.7c-0.1-0.4-0.4-0.7-0.8-0.9
	c-0.4-0.2-0.9-0.3-1.6-0.3c-0.5,0-1,0.1-1.5,0.3c-0.5,0.2-1,0.5-1.6,0.9l-1.4,14.4h-6.4l1-10.2c0.1-1,0.2-1.8,0.2-2.5
	c0-0.7,0-1.3-0.2-1.7c-0.1-0.4-0.4-0.7-0.8-0.9c-0.4-0.2-0.9-0.3-1.5-0.3c-0.5,0-1,0.1-1.6,0.4c-0.5,0.2-1,0.5-1.5,0.9L117,64.8
	h-6.4l2-20.4h6.4l-0.2,2.3c1.1-0.9,2.2-1.6,3.1-2.1c1-0.5,2-0.7,3.2-0.7c1.2,0,2.3,0.3,3.2,0.9c0.9,0.6,1.5,1.5,1.9,2.7
	c1.3-1.1,2.6-2,3.7-2.6c1.2-0.6,2.3-0.9,3.4-0.9c0.9,0,1.8,0.2,2.5,0.5c0.7,0.3,1.3,0.8,1.8,1.4c0.5,0.7,0.8,1.4,1,2.3
	c0.2,0.9,0.2,2.1,0.1,3.5l-1.3,13.3L135,64.8L135,64.8z M151.6,41.5h-6.7l0.5-5h6.7L151.6,41.5z M168.1,59.9c-0.8-1.6-1-3.5-0.8-5.8
	c0.3-3.3,1.6-6,3.7-8c2.1-2,4.9-3,8.3-3c3.1,0,5.4,0.8,6.8,2.5c1.4,1.7,2,4.1,1.6,7.2l-0.2,2.3h-13.9c0,0.9,0.1,1.7,0.4,2.4
	c0.3,0.6,0.7,1.1,1.2,1.5c0.5,0.4,1.1,0.6,1.8,0.8c0.7,0.2,1.5,0.2,2.4,0.2c0.7,0,1.5-0.1,2.2-0.2c0.7-0.2,1.4-0.4,2-0.7
	c0.5-0.2,1-0.5,1.5-0.7c0.5-0.3,0.9-0.5,1.2-0.7h0.7l-0.5,5.2c-0.5,0.2-1,0.4-1.5,0.6c-0.4,0.2-1,0.3-1.8,0.5
	c-0.7,0.2-1.4,0.3-2.2,0.4c-0.6,0.1-1.2,0.1-1.9,0.2l-29.8,0h-0.7h-5.7l2-20.4h6.4l-1.5,15.4l10.1-10.6l-7.6,0l0.5-4.7l15.4-0.1
	l-0.4,4.1l-10.9,11.4H168.1z M181.6,51.4c0.1-1.3-0.1-2.4-0.6-3.1c-0.5-0.7-1.4-1.1-2.6-1.1c-1.2,0-2.2,0.4-3,1.1
	c-0.8,0.7-1.2,1.7-1.4,3L181.6,51.4L181.6,51.4z M215.9,43.9l-13.1,27.9h-6.8l3.9-8l-4.3-15.7l-1.6,16.2h-6.4l2.8-28.2h6.4l-0.8,7.9
	h5.1l3,12.8l5.3-12.8L215.9,43.9L215.9,43.9z"/>
</svg>
